<svg class="icon" style="width: 1em;height: 1em;vertical-align: middle;fill: currentColor;overflow: hidden;" viewBox="0 0 1024 1024" version="1.1" xmlns="http://www.w3.org/2000/svg" p-id="20121"><path d="M881.700864 844.730368c0 20.422656-16.549888 36.974592-36.968448 36.974592H179.277824c-20.416512 0-36.970496-16.551936-36.970496-36.974592V179.275776c0-20.420608 16.553984-36.968448 36.970496-36.968448h665.454592c20.41856 0 36.968448 16.549888 36.968448 36.968448v665.454592z" fill="#FD9C9C" p-id="20122"></path><path d="M1008.683008 485.859328c14.440448 14.442496 14.440448 37.844992 0 52.28544L538.144768 1008.685056c-14.434304 14.4384-37.844992 14.4384-52.279296 0L15.316992 538.14272c-14.4384-14.4384-14.4384-37.84704 0-52.281344L485.85728 15.312896c14.442496-14.436352 37.844992-14.436352 52.28544 0l470.540288 470.546432z" fill="#FC3A3A" p-id="20123"></path><path d="M321.992704 712.572928c-5.41696-9.127936-10.983424-17.324032-16.703488-24.592384 128.835584-33.564672 201.527296-76.560384 218.079232-128.991232H292.06528v-24.127488h238.495744c9.897984-37.12 14.616576-100.456448 14.15168-190.009344h26.216448c0.464896 85.223424-4.098048 148.559872-13.688832 190.009344h174.696448v24.127488h-180.959232c-1.855488 6.03136-4.718592 13.072384-8.583168 21.112832 80.889856 42.999808 142.061568 75.784192 183.51104 98.367488l-17.631232 24.127488c-64.649216-38.51264-124.041216-72.228864-178.176-101.152768-28.768256 42.379264-98.138112 79.419392-208.105472 111.128576z m-10.440704-397.185024V291.49184h403.214336v24.823808l-46.864384 96.976896c-8.042496-4.020224-16.625664-7.655424-25.751552-10.903552l44.775424-86.99904H311.552z m20.416512 123.42272l14.616576-17.864704c32.78848 19.951616 66.891776 41.607168 102.311936 64.960512l-16.703488 20.416512c-33.72032-23.97184-67.129344-46.475264-100.225024-67.51232z m52.201472-71.223296l14.848-18.096128c34.023424 20.26496 66.428928 40.912896 97.20832 61.943808l-16.472064 20.416512c-33.72032-24.129536-65.581056-45.54752-95.584256-64.264192z" fill="#FFFFFF" p-id="20124"></path></svg>