<svg class="icon" style="width: 1em;height: 1em;vertical-align: middle;fill: currentColor;overflow: hidden;" viewBox="0 0 1024 1024" version="1.1" xmlns="http://www.w3.org/2000/svg" p-id="998"><path d="M917.841192 393.255549l-55.42738-63.299675c-10.209526-11.649318-26.909883-11.82635-37.303604-0.384763-10.420327 11.411911-10.578939 30.127158-0.369414 41.806151l34.929534 39.884382c-265.161149 12.239765-533.567201-92.27459-738.103598-314.076208-9.655917-10.466376-24.877597-11.588943-34.981722-1.655709-12.003382 11.796674-13.006222 31.989575-1.899256 44.022633C296.160163 369.011378 572.612473 479.527424 846.953701 471.190549l-23.267936 25.604144c-10.393721 11.441587-10.552334 30.156834-0.342808 41.806151 10.18292 11.678994 26.882254 11.856026 37.303604 0.414439l56.483432-62.117756 24.402783-26.845415c7.334036-8.042163 7.439436-21.228487 0.264013-29.418007L917.841192 393.255549zM170.130795 399.461901l-62.157665 0c-17.155728 0-31.078833 12.531408-31.078833 27.971052l0 503.479953c0 15.439644 13.923104 27.971052 31.078833 27.971052l62.157665 0c17.155728 0 31.078833-12.531408 31.078833-27.971052L201.209628 427.432952C201.209628 411.993309 187.2855 399.461901 170.130795 399.461901zM418.762479 523.778254l-62.157665 0c-17.155728 0-31.078833 12.183484-31.078833 27.194362l0 380.718001c0 15.010879 13.923104 27.194362 31.078833 27.194362l62.157665 0c17.155728 0 31.078833-12.183484 31.078833-27.194362L449.841312 550.971593C449.841312 535.960715 435.918207 523.778254 418.762479 523.778254zM667.395186 648.093585l-62.157665 0c-17.155728 0-31.078833 11.603269-31.078833 25.898857l0 258.991636c0 14.296611 13.923104 25.898857 31.078833 25.898857l62.157665 0c17.155728 0 31.078833-11.603269 31.078833-25.898857L698.474019 673.993464C698.474019 659.696854 684.550914 648.093585 667.395186 648.093585zM916.02687 710.252273l-62.157665 0c-17.155728 0-31.078833 11.138688-31.078833 24.863271l0 198.906166c0 13.724583 13.923104 24.863271 31.078833 24.863271l62.157665 0c17.155728 0 31.078833-11.138688 31.078833-24.863271L947.105702 735.115544C947.106726 721.390961 933.182598 710.252273 916.02687 710.252273z" fill="green" p-id="999"></path></svg>