<svg class="icon" style="width: 1em;height: 1em;vertical-align: middle;fill: currentColor;overflow: hidden;" viewBox="0 0 1024 1024" version="1.1" xmlns="http://www.w3.org/2000/svg" p-id="25839"><path d="M511.63648 941.35296a429.24032 429.24032 0 1 1 418.11968-330.1376 26.31168 26.31168 0 1 1-51.2-12.14976 376.6784 376.6784 0 1 0-266.04544 276.02944 26.31168 26.31168 0 0 1 14.04416 50.7136 430.5152 430.5152 0 0 1-114.9184 15.54432z" fill="#2966C1" p-id="25840"></path><path d="M657.5616 568.71424a26.32192 26.32192 0 0 0-26.41408-26.22976h-87.31136v-36.4288h87.31136a26.22976 26.22976 0 1 0 0-52.4544h-57.37472l73.48224-72.96512a26.112 26.112 0 0 0 0-37.08928 26.53696 26.53696 0 0 0-37.376 0l-93.96224 93.32736L421.93408 343.552a26.53696 26.53696 0 0 0-37.3504 0 26.112 26.112 0 0 0 0 37.08928l73.47712 72.96H403.69664a26.22976 26.22976 0 1 0 0 52.4544H491.008v36.4288H403.69664a26.22976 26.22976 0 1 0 0 52.45952H491.008v91.06944a26.41408 26.41408 0 0 0 52.82816 0V594.944h87.31136a26.32192 26.32192 0 0 0 26.41408-26.22976z m108.63104 255.13472h-99.78368a26.22976 26.22976 0 1 1 0-52.4544h254.35136a26.22976 26.22976 0 1 1 0 52.4544h-154.56768z" fill="#FD9A16" p-id="25841"></path></svg>