<svg class="icon" style="width: 1em;height: 1em;vertical-align: middle;fill: currentColor;overflow: hidden;" viewBox="0 0 1024 1024" version="1.1" xmlns="http://www.w3.org/2000/svg" p-id="10099"><path d="M881.700864 844.730368c0 20.422656-16.549888 36.974592-36.968448 36.974592H179.277824c-20.416512 0-36.970496-16.551936-36.970496-36.974592V179.275776c0-20.420608 16.553984-36.968448 36.970496-36.968448h665.454592c20.41856 0 36.968448 16.549888 36.968448 36.968448v665.454592z" fill="#fba99e" p-id="10100"></path><path d="M1008.683008 485.859328c14.440448 14.442496 14.440448 37.844992 0 52.28544L538.144768 1008.685056c-14.434304 14.4384-37.844992 14.4384-52.279296 0L15.316992 538.14272c-14.4384-14.4384-14.4384-37.84704 0-52.281344L485.85728 15.312896c14.442496-14.436352 37.844992-14.436352 52.28544 0l470.540288 470.546432z" fill="#d81e06" p-id="10101"></path><path d="M548.192256 446.65856h25.055232c-1.081344 55.064576-6.959104 96.049152-17.631232 122.96192h171.679744v22.96832h-182.583296a103.923712 103.923712 0 0 1-9.51296 15.54432c6.805504 2.63168 16.703488 6.496256 29.696 11.599872 68.052992 26.29632 122.032128 48.099328 161.93536 65.42336l-14.383104 23.66464c-62.793728-28.616704-126.90432-56.143872-192.32768-82.591744-33.099776 35.72736-104.863744 64.415744-215.296 86.071296-2.011136-4.796416-5.799936-11.679744-11.368448-20.647936a165.779456 165.779456 0 0 1-2.783232-4.640768c126.208-22.892544 201.064448-54.36416 224.575488-94.42304h-218.54208v-22.96832H528.24064c12.990464-25.67168 19.642368-66.6624 19.951616-122.96192z m-50.343936-180.959232h25.055232v47.327232h171.911168v22.96832h-171.911168v59.392h191.399936v23.66464l-33.175552 63.336448a154.43968 154.43968 0 0 0-22.272-8.583168l30.39232-55.681024h-385.35168V395.38688h193.951744v-59.392h-166.344704v-22.96832h166.344704v-47.327232z m-47.558656 284.432384a2115.77856 2115.77856 0 0 0-117.39136-35.495936l8.583168-19.02592c40.368128 11.137024 79.652864 22.96832 117.856256 35.497984l-9.048064 19.023872z m31.782912-52.66432c-29.079552-9.744384-67.280896-21.960704-114.608128-36.655104l8.583168-17.864704c42.532864 11.911168 80.736256 23.431168 114.608128 34.568192l-8.583168 19.951616z" fill="#FFFFFF" p-id="10102"></path></svg>