<svg class="icon" style="width: 1.001953125em;height: 1em;vertical-align: middle;fill: currentColor;overflow: hidden;" viewBox="0 0 1026 1024" version="1.1" xmlns="http://www.w3.org/2000/svg" p-id="8310"><path d="M2.046 1013.77h10.23V1024H2.046zM1014.793 1.023h10.23v10.23h-10.23zM868.507 284.388l-16.367-12.276c-9.207-6.138-16.368-5.115-28.643 4.092l-37.85 48.08c-3.07 9.207-5.116 21.482 10.23 28.643l10.229 12.276c9.207 6.138 21.482 5.115 28.643-4.092l37.85-48.08c7.161-9.207 5.115-22.506-4.092-28.643z m81.839-102.298l-16.368-12.276c-9.207-6.138-16.368-5.115-28.643 4.092l-37.85 48.08c-3.07 9.207-5.115 21.483 10.23 28.643l10.23 12.276c9.206 6.138 21.482 5.115 28.642-4.092l37.85-48.08c7.161-9.207 5.115-22.505-4.091-28.643zM790.76 367.249c-13.298-12.276-32.735-5.115-42.965 8.184l-30.69 38.873c-21.482-11.253-47.056-18.414-72.63-18.414-27.62 0-53.195 7.16-75.7 20.46l-45.012-41.942c13.299-21.483 20.46-46.034 20.46-72.632 0-81.838-71.609-151.4-155.493-151.4s-151.4 68.54-151.4 151.4c0 48.08 23.528 92.068 59.332 119.689l-49.103 95.136c-11.252-3.069-23.528-5.114-36.827-5.114-83.884 0-151.4 68.539-151.4 151.4 0 83.884 68.54 151.4 151.4 151.4 83.884 0 151.4-68.539 151.4-151.4 0-51.149-26.597-97.183-66.493-124.803l51.15-90.022c13.298 4.092 27.62 6.138 41.941 6.138 32.736 0 64.448-11.253 90.022-29.667l40.92 36.828c-17.391 24.551-27.621 54.217-27.621 85.93 0 83.884 68.54 151.4 151.4 151.4 83.885 0 155.493-69.562 155.493-151.4 0-36.827-15.345-71.609-38.873-98.206l34.781-36.827c10.23-13.299 8.184-33.759-4.092-45.011zM309.962 663.912c0 55.24-45.011 100.252-100.252 100.252S109.46 719.153 109.46 663.912 154.469 563.66 209.71 563.66s100.252 45.011 100.252 100.252z m77.746-261.882c-55.24 0-100.251-45.011-100.251-100.252s45.01-100.252 100.251-100.252c56.264 0 104.344 46.034 104.344 100.252S443.972 402.03 387.708 402.03z m255.745 245.514c-55.241 0-100.252-45.01-100.252-100.251S588.21 447.04 643.453 447.04c56.263 0 104.343 46.034 104.343 100.252s-48.08 100.251-104.343 100.251z" fill="#F64646" p-id="8311"></path></svg>