<svg class="icon" style="width: 1em;height: 1em;vertical-align: middle;fill: currentColor;overflow: hidden;" viewBox="0 0 1024 1024" version="1.1" xmlns="http://www.w3.org/2000/svg" p-id="8291"><path d="M854.533333 409.733333L485.733333 725.066667c-0.133333 0.133333-0.266667 0.266667-0.4 0.266666-26.933333 26.933333-26.533333 18.4-48.666666 0l-0.4-0.4-53.6-53.6c-24.8-24.8-29.2-20.266667-49.466667 0l-1.066667 1.066667-239.733333 206.666667c-14.4 12.4-16.133333 34-4.133333 48.533333 3.466667 0.266667 5.466667 0.4 8.933333 0.8l236-203.6c20.4-20.4 23.733333-21.866667 47.466667 1.733333l55.866666 55.733334c21.2 21.2 30.4 18.533333 48.933334 0l1.333333-1.333334 396.533333-344.133333 9.866667-30.4c-36.666667 1.6-36.666667 1.6-38.666667 3.333333zM86 162.133333c-16.266667 0-29.466667 20-29.466667 34.4v774.666667c0 14.4 13.2 26.133333 29.333334 26.133333h826.533333c16.266667 0 37.2-11.733333 37.2-26.133333v-9.466667H121.466667c-29.333333 0-29.466667 0-29.466667-26.133333V167.466667c0-2.933333-2.666667-5.333333-6-5.333334zM509.066667 162.133333c-95.866667 0-173.466667 77.733333-173.466667 173.466667S413.333333 509.066667 509.066667 509.066667s173.466667-77.733333 173.466666-173.466667-77.733333-173.466667-173.466666-173.466667z m0 318.4c-80 0-144.933333-64.933333-144.933334-144.933333S428.933333 190.666667 509.066667 190.666667s144.933333 64.933333 144.933333 144.933333-64.933333 144.933333-144.933333 144.933333z m55.2-198.266666c2.133333 6.266667-1.333333 13.066667-7.6 15.066666-6.266667 2.133333-13.066667-1.333333-15.2-7.6-2.8-8.533333-13.066667-18.4-32.533334-18.4-16.133333 0-25.6 10.8-26.8 21.466667-1.333333 13.2 9.866667 23.866667 29.2 27.866667 38.8 8.133333 50.133333 34 48.133334 53.866666-2.133333 20.666667-18 36.933333-38.666667 41.6v14.933334c0 6.666667-5.333333 12-12 12s-12-5.333333-12-12v-14.533334c-24.666667-4-38.533333-19.866667-43.2-33.866666-2.133333-6.266667 1.333333-13.066667 7.6-15.2 6.266667-2.133333 13.066667 1.333333 15.2 7.6 2.8 8.533333 13.066667 18.4 32.533333 18.4 16.133333 0 25.6-10.8 26.8-21.466667 1.333333-13.2-9.866667-23.866667-29.2-27.866667-38.8-8.133333-50.133333-34-48.133333-53.733333 2.133333-20.666667 18-36.933333 38.666667-41.6v-14.933333c0-6.666667 5.333333-12 12-12s12 5.333333 12 12v14.533333c24.533333 4 38.533333 20 43.2 33.866667z m0 0M902.533333 362.8l-92.133333 24.666667 67.466667 67.466666z" p-id="8292"></path></svg>