<svg class="icon" style="width: 1em;height: 1em;vertical-align: middle;fill: currentColor;overflow: hidden;" viewBox="0 0 1024 1024" version="1.1" xmlns="http://www.w3.org/2000/svg" p-id="1241"><path d="M667.395186 523.778254l-62.157665 0c-17.155728 0-31.078833 12.183484-31.078833 27.194362l0 380.718001c0 15.010879 13.923104 27.194362 31.078833 27.194362l62.157665 0c17.155728 0 31.078833-12.183484 31.078833-27.194362L698.474019 550.972617C698.474019 535.960715 684.550914 523.778254 667.395186 523.778254zM418.762479 648.094608l-62.157665 0c-17.155728 0-31.078833 11.603269-31.078833 25.898857l0 258.991636c0 14.296611 13.923104 25.898857 31.078833 25.898857l62.157665 0c17.155728 0 31.078833-11.603269 31.078833-25.898857L449.841312 673.993464C449.841312 659.696854 435.918207 648.094608 418.762479 648.094608zM170.130795 710.252273l-62.157665 0c-17.155728 0-31.078833 11.138688-31.078833 24.863271l0 198.906166c0 13.724583 13.923104 24.863271 31.078833 24.863271l62.157665 0c17.155728 0 31.078833-11.138688 31.078833-24.863271L201.209628 735.115544C201.209628 721.390961 187.2855 710.252273 170.130795 710.252273zM893.393383 399.461901l22.342868 0c18.066471 0 31.369452 14.184047 31.369452 31.679513l0 496.063029c0 17.851577-13.913894 31.679513-31.078833 31.679513l-31.078833 0-31.078833 0c-16.662495 0-31.078833-14.183024-31.078833-31.679513L822.790372 431.141414c0-17.851577 14.044878-31.679513 31.370475-31.679513L893.393383 399.461901M891.185089 193.19714l0 34.323737c0 15.356756 12.467963 27.76946 27.830859 27.76946 15.362896 0 27.831882-12.412704 27.831882-27.76946l0-83.309404 0-35.989679c0-10.80202-8.766664-19.550265-19.565615-19.550265l-36.098149 0-83.495646 0c-15.362896 0-27.830859 12.441357-27.830859 27.76946 0 15.356756 12.467963 27.770484 27.830859 27.770484l52.602032 0C672.593582 351.513866 404.046313 484.420875 103.908558 492.196978c-14.166651 0.361227-26.161846 11.05273-26.969235 25.187659-0.918929 16.773012 11.883655 30.825053 28.193109 30.408567C415.540088 539.821649 694.052313 404.804582 891.185089 193.19714" fill="red" p-id="1242"></path></svg>